PathFileType	4	(X/Y/Z)	./resultDataOpenSim/trcMotMarkerGrf/sub10/qtm-01-01.trc
DataRate	CameraRate	NumFrames	NumMarkers	Units	OrigDataRate	OrigDataStartFrame	OrigNumFrames
250.000000	250.000000	7	24	m	250.000000	180	479
Frame#	Time	L.Toe.Tip			R.Toe.Tip			L.Ankle.Lat			R.Ankle.Lat			L.Ankle.Med			R.Ankle.Med			L.Heel			R.Heel			L.Knee.Lat			R.Knee.Lat			L.Knee.Med			R.Knee.Med			L.Thigh.Upper			R.Thigh.Upper			L.ASIS			R.ASIS			V.Sacral			L.Acromium			R.Acromium			C7			L.Elbow			R.Elbow			L.Wrist.Lat			R.Wrist.Lat
		X1	Y1	Z1	X2	Y2	Z2	X3	Y3	Z3	X4	Y4	Z4	X5	Y5	Z5	X6	Y6	Z6	X7	Y7	Z7	X8	Y8	Z8	X9	Y9	Z9	X10	Y10	Z10	X11	Y11	Z11	X12	Y12	Z12	X13	Y13	Z13	X14	Y14	Z14	X15	Y15	Z15	X16	Y16	Z16	X17	Y17	Z17	X18	Y18	Z18	X19	Y19	Z19	X20	Y20	Z20	X21	Y21	Z21	X22	Y22	Z22	X23	Y23	Z23	X24	Y24	Z24

180	0.716	-0.0061318974	0.045505817	-0.14310055	-0.67021197	0.038689388	-0.020348945	-0.141842	0.066869913	-0.16658034	-0.76984977	0.13151983	0.020517024	-0.13380743	0.090376775	-0.082997998	-0.73661571	0.14086664	-0.062070867	-0.20537545	0.03535205	-0.12310429	-0.82421006	0.13878717	-0.026030097	-0.16426941	0.45751773	-0.19609515	-0.49908704	0.42457645	0.048602588	-0.15305207	0.43976776	-0.075659555	-0.47477909	0.42296672	-0.077555345	-0.29786465	0.82020547	-0.25757377	-0.39908429	0.81325048	0.11789816	-0.26585795	0.92468789	-0.17401189	-0.30431156	0.90224976	0.067668782	-0.48139088	0.92517359	-0.092353081	-0.34441579	1.3789221	-0.22619475	-0.37831979	1.3800748	0.10022309	-0.44929492	1.4120981	-0.076828346	-0.47179556	1.0654626	-0.25840891	-0.4064676	1.0175792	0.13835034	-0.3962355	0.82883927	-0.29553553	-0.17689267	0.9158836	0.13168657
181	0.72	-0.0058960175	0.045211679	-0.14275109	-0.66900645	0.03856992	-0.020552119	-0.14168024	0.066815097	-0.16648072	-0.76472246	0.1356306	0.020433625	-0.13373485	0.090165999	-0.08280018	-0.72988626	0.14345914	-0.061499593	-0.20530448	0.035355735	-0.12299154	-0.81776592	0.14468079	-0.027463051	-0.16144593	0.45736629	-0.19620222	-0.48977418	0.42470953	0.048602976	-0.15023541	0.43959101	-0.075573954	-0.46510357	0.42245694	-0.077307376	-0.29290422	0.82127337	-0.25845114	-0.39225624	0.81364876	0.11717803	-0.26021117	0.92643342	-0.17509146	-0.29764487	0.90333144	0.066416407	-0.47426306	0.9262133	-0.092156092	-0.33905922	1.3801189	-0.22686551	-0.37189066	1.381257	0.099416161	-0.4433173	1.4131865	-0.077339444	-0.46599397	1.0663812	-0.25884492	-0.40217162	1.0190996	0.13743608	-0.38963667	0.82991971	-0.29583428	-0.1732139	0.91570094	0.13118863
182	0.724	-0.005687569	0.044951831	-0.1424045	-0.66765422	0.038490062	-0.020707305	-0.14156424	0.066790852	-0.16642247	-0.75904901	0.13970493	0.020319955	-0.1336812	0.089940748	-0.082598844	-0.72279403	0.14587773	-0.060906367	-0.20510871	0.035361101	-0.12261242	-0.8108744	0.15038107	-0.028846147	-0.15885914	0.45715553	-0.19629737	-0.48020501	0.42480145	0.048667843	-0.14790209	0.43919556	-0.075513803	-0.45498762	0.42179642	-0.076983257	-0.28793937	0.8223534	-0.25930964	-0.38543346	0.81405903	0.11641976	-0.25458956	0.92816051	-0.17622477	-0.29101686	0.90444043	0.065141355	-0.46680293	0.92719236	-0.092173593	-0.33367417	1.3813501	-0.22753431	-0.36548989	1.3824413	0.098613586	-0.4373873	1.4143	-0.077806862	-0.45994513	1.067226	-0.2594579	-0.39792437	1.0206143	0.13656713	-0.38301738	0.83105447	-0.29614099	-0.16960487	0.91547784	0.13072582
183	0.728	-0.0054923718	0.044716466	-0.14208147	-0.66616904	0.038444043	-0.020819043	-0.14146087	0.066775916	-0.16639519	-0.75287115	0.14373036	0.02024174	-0.13361121	0.089703229	-0.082399437	-0.71542074	0.14817798	-0.060257706	-0.20481876	0.035369802	-0.12204627	-0.80353798	0.15599263	-0.029910826	-0.15645477	0.45691567	-0.19638432	-0.47043403	0.42486278	0.048794507	-0.14606689	0.43862794	-0.075538985	-0.44446735	0.42096596	-0.076570884	-0.28303698	0.82344659	-0.26013528	-0.3786289	0.81447499	0.11562945	-0.24907743	0.92984145	-0.17740485	-0.28452008	0.90555169	0.063899262	-0.45961545	0.92827336	-0.092098493	-0.32820754	1.382618	-0.22821744	-0.3591131	1.3836228	0.097842827	-0.43155671	1.4154471	-0.078160749	-0.45393298	1.0680905	-0.25996039	-0.39374283	1.0221015	0.13576057	-0.37634592	0.83224715	-0.29646788	-0.16605711	0.91521398	0.13029797
184	0.732	-0.0053048447	0.044498307	-0.14178474	-0.66455866	0.038425623	-0.020902269	-0.1413382	0.066735933	-0.16637524	-0.74629271	0.14770136	0.020252059	-0.13352481	0.089462907	-0.082216432	-0.7078386	0.15042411	-0.059539924	-0.20455888	0.035372092	-0.12155162	-0.79580128	0.16159693	-0.030675613	-0.15417064	0.45665881	-0.19646547	-0.46053589	0.42490537	0.048983919	-0.14466606	0.4379367	-0.075637219	-0.43358341	0.41994533	-0.076082588	-0.27815638	0.82456339	-0.26092712	-0.37185336	0.81488969	0.11481803	-0.24367302	0.93145605	-0.17861061	-0.27820266	0.90665052	0.062721126	-0.45304627	0.92955283	-0.091764897	-0.32267268	1.3839199	-0.228908	-0.35275227	1.3847997	0.097096512	-0.42577284	1.4166138	-0.078451839	-0.44809078	1.0690118	-0.26028838	-0.38960951	1.0235655	0.13499248	-0.36958949	0.83349416	-0.29682032	-0.16256133	0.91490915	0.12990883
185	0.736	-0.0051263843	0.044294738	-0.1415101	-0.66280527	0.038460146	-0.020966563	-0.14118777	0.066654812	-0.16634741	-0.73939461	0.15163481	0.020366022	-0.13344537	0.089234535	-0.082064394	-0.70009478	0.15268392	-0.058764224	-0.20442043	0.035357655	-0.12130768	-0.78773191	0.16721719	-0.031238042	-0.15196084	0.4563944	-0.19653232	-0.45057536	0.42493517	0.049233333	-0.14353739	0.43717089	-0.07571252	-0.42238297	0.41872049	-0.07556945	-0.27321635	0.82571485	-0.26169383	-0.36511415	0.81529639	0.11399384	-0.23832914	0.9330002	-0.17981261	-0.27203743	0.90773831	0.061594432	-0.44698167	0.93099595	-0.091242067	-0.31713735	1.3852466	-0.22957971	-0.34640173	1.3859719	0.096354224	-0.41997768	1.4177735	-0.078769668	-0.44236135	1.0699548	-0.26055191	-0.3854768	1.0250353	0.13420247	-0.36273887	0.83478984	-0.29720069	-0.15911555	0.91456607	0.12956612
186	0.74	-0.0049624475	0.044107348	-0.14125566	-0.66086619	0.038626341	-0.021011177	-0.14102663	0.066547442	-0.16631469	-0.73222537	0.15556906	0.020573256	-0.13339522	0.089030672	-0.081951363	-0.69220511	0.15500596	-0.057953021	-0.20439196	0.035325936	-0.12128191	-0.77940023	0.17285399	-0.031640354	-0.14979886	0.45613923	-0.19657844	-0.44059425	0.424957	0.049540621	-0.14252229	0.4363745	-0.075692491	-0.41094595	0.41729041	-0.075093325	-0.26817331	0.82690033	-0.26243591	-0.35842045	0.81569296	0.11316247	-0.23301517	0.93448016	-0.18098572	-0.26596247	0.9088266	0.060487544	-0.44115058	0.93249988	-0.090695125	-0.3116525	1.3865929	-0.23021524	-0.3400684	1.3871362	0.095610584	-0.41416876	1.4189071	-0.079184467	-0.43680625	1.0709504	-0.26061691	-0.38131317	1.0265318	0.13334934	-0.3558068	0.83612856	-0.29760654	-0.15572217	0.9141884	0.12927947
